<?xml version="1.0" encoding="iso-8859-1"?>
<!-- Generator: Adobe Illustrator 19.0.0, SVG Export Plug-In . SVG Version: 6.00 Build 0)  -->
<svg xmlns="http://www.w3.org/2000/svg" xmlns:xlink="http://www.w3.org/1999/xlink" version="1.1" id="Layer_1" x="0px" y="0px" viewBox="0 0 512 512" style="enable-background:new 0 0 512 512;" xml:space="preserve" width="512px" height="512px">
<g>
	<g>
		<path d="M489.657,196.47h-26.229v-40.024c0-18.48-15.035-33.515-33.515-33.515H33.515C15.035,122.931,0,137.965,0,156.445v199.109    c0,18.48,15.035,33.515,33.515,33.515h396.399c18.48,0,33.515-15.035,33.515-33.515V315.53h26.229    c12.32,0,22.343-10.023,22.343-22.343v-74.375C512,206.493,501.977,196.47,489.657,196.47z M113.377,366.726H33.515    c-6.16,0-11.172-5.012-11.172-11.172V156.445c0-6.16,5.012-11.172,11.172-11.172h79.862V366.726z M441.085,355.555    c0,6.16-5.012,11.172-11.172,11.172H135.72V145.274h294.194c6.16,0,11.172,5.012,11.172,11.172V355.555z M489.657,293.187h-26.229    v-74.375h26.229l0.015,74.375C489.67,293.186,489.666,293.187,489.657,293.187z" fill="#FFFFFF"/>
	</g>
</g>
<g>
	<g>
		<path d="M363.722,241.226c-3.3-5.21-10.202-6.761-15.416-3.459l-48.733,30.871v-45.581c0-4.073-2.216-7.823-5.786-9.787    c-3.567-1.963-7.923-1.829-11.365,0.35l-65.883,41.737c-5.212,3.302-6.761,10.204-3.459,15.416    c3.3,5.21,10.202,6.761,15.416,3.459l48.733-30.873v45.581c0,4.073,2.216,7.823,5.786,9.787c1.68,0.925,3.535,1.384,5.386,1.384    c2.08,0,4.158-0.581,5.979-1.734l65.883-41.736C365.475,253.339,367.025,246.438,363.722,241.226z" fill="#FFFFFF"/>
	</g>
</g>
<g>
</g>
<g>
</g>
<g>
</g>
<g>
</g>
<g>
</g>
<g>
</g>
<g>
</g>
<g>
</g>
<g>
</g>
<g>
</g>
<g>
</g>
<g>
</g>
<g>
</g>
<g>
</g>
<g>
</g>
</svg>
