<?xml version="1.0" encoding="iso-8859-1"?>
<!-- Generator: Adobe Illustrator 16.0.0, SVG Export Plug-In . SVG Version: 6.00 Build 0)  -->
<!DOCTYPE svg PUBLIC "-//W3C//DTD SVG 1.1//EN" "http://www.w3.org/Graphics/SVG/1.1/DTD/svg11.dtd">
<svg xmlns="http://www.w3.org/2000/svg" xmlns:xlink="http://www.w3.org/1999/xlink" version="1.1" id="Capa_1" x="0px" y="0px" width="512px" height="512px" viewBox="0 0 566.848 566.848" style="enable-background:new 0 0 566.848 566.848;" xml:space="preserve">
<g>
	<g>
		<path d="M550.542,206.812l-14.424-3.075c-1.83-2.433-3.789-4.764-6.02-6.897c-1.096-1.047-2.289-1.995-3.473-2.95    c-11.843-9.52-28.055-14.394-48.376-14.394h-19.146h-36.692l-32.387-6.903L300.445,24.377c-4.7-7.778-10.862-11.665-17.022-11.665    c-6.16,0-12.323,3.889-17.023,11.665l-89.578,148.214l-32.387,6.903h-36.692H71.053H33.589c-6.986,0-12.812,4.709-14.646,11.108    c-0.382,1.34-0.655,2.726-0.655,4.192v3.77v7.821l-1.986,0.422c-17.775,3.788-21.61,17.118-8.559,29.771l62.304,60.413v10.658    v10.656v40.729c0,8.447,6.852,15.299,15.3,15.299h24.278h7.724h7.723l-22.093,158.598c-1.852,13.295,3.776,21.199,13.421,21.199    c3.412,0,7.329-0.988,11.594-3.078l155.427-76.102l155.424,76.104c4.266,2.088,8.182,3.08,11.594,3.08    c9.648,0,15.275-7.902,13.422-21.201l-22.094-158.596h3.091c1.588,0,3.087-0.309,4.528-0.76c2.794-0.869,5.221-2.496,7.075-4.67    c2.273-2.67,3.699-6.088,3.699-9.871v-5.207v-10.652V332.52l19.976-19.369c4.346-0.242,8.467-0.721,12.421-1.387    c5.367-0.902,10.364-2.201,14.991-3.883c8.256-3.002,15.382-7.174,21.209-12.627c6.762-6.334,11.777-13.889,15.082-22.563    c1.692-4.443,2.907-9.195,3.682-14.226c0.572-3.708,0.894-7.573,0.967-11.591l10.615-10.294    C572.152,223.929,568.321,210.6,550.542,206.812z M530.515,264.303c-2.436,7.782-6.469,14.404-12.212,19.783    c-5.021,4.703-11.384,8.217-19.067,10.547c-7.57,2.303-16.429,3.455-26.585,3.455h-27.785v49.264v11.684h-5.221h-45.756v-164.24    h84.361c18.372,0,32.133,4.37,41.282,13.109c9.149,8.74,13.725,21.175,13.725,37.308    C533.257,252.24,532.305,258.578,530.515,264.303z M85.349,333.145v-10.656V311.83v-76.478h-51.76v-32.225v-7.821v-0.508h2.383    h36.689h115.197v40.557h-51.76v123.686h-8.896h-7.723h-7.724H85.349V333.145z M283.423,361.838    c-18.522,0-33.853-2.951-45.989-8.85c-12.136-5.9-21.977-15.236-29.52-28.008c-7.542-12.773-11.315-28.756-11.315-47.951    c0-26.814,7.469-47.69,22.405-62.626c14.939-14.939,35.737-22.405,62.402-22.405c27.335,0,48.397,7.338,63.186,22.014    c14.789,14.676,22.183,35.236,22.183,61.674c0,19.195-3.231,34.937-9.691,47.222s-15.796,21.846-28.008,28.682    C316.862,358.426,301.648,361.838,283.423,361.838z" fill="#FFFFFF"/>
		<path d="M281.293,230.422c-10.232,0-18.449,3.623-24.648,10.866c-6.199,7.246-9.299,19.232-9.299,35.964    c0,16.583,3.082,28.495,9.245,35.737c6.163,7.246,14.544,10.867,25.15,10.867c10.903,0,19.345-3.547,25.319-10.643    c5.976-7.098,8.963-19.83,8.963-38.205c0-15.459-3.118-26.756-9.354-33.889C300.434,233.991,291.976,230.422,281.293,230.422z" fill="#FFFFFF"/>
		<path d="M459.314,228.183h-14.452v36.634h12.436c9.783,0,16.656-1.698,20.615-5.098c3.96-3.4,5.937-7.748,5.937-13.051    c0-5.153-1.717-9.522-5.153-13.109C475.261,229.976,468.801,228.183,459.314,228.183z" fill="#FFFFFF"/>
	</g>
</g>
<g>
</g>
<g>
</g>
<g>
</g>
<g>
</g>
<g>
</g>
<g>
</g>
<g>
</g>
<g>
</g>
<g>
</g>
<g>
</g>
<g>
</g>
<g>
</g>
<g>
</g>
<g>
</g>
<g>
</g>
</svg>
