<?xml version="1.0" encoding="iso-8859-1"?>
<!-- Generator: Adobe Illustrator 19.0.0, SVG Export Plug-In . SVG Version: 6.00 Build 0)  -->
<svg xmlns="http://www.w3.org/2000/svg" xmlns:xlink="http://www.w3.org/1999/xlink" version="1.1" id="Layer_1" x="0px" y="0px" viewBox="0 0 512 512" style="enable-background:new 0 0 512 512;" xml:space="preserve" width="512px" height="512px">
<g>
	<g>
		<g>
			<path d="M196.267,409.597h-153.6c-4.71,0-8.533,3.823-8.533,8.533s3.823,8.533,8.533,8.533h153.6c4.71,0,8.533-3.823,8.533-8.533     S200.977,409.597,196.267,409.597z" fill="#FFFFFF"/>
			<path d="M25.6,324.263h68.267c4.71,0,8.533-3.823,8.533-8.533s-3.823-8.533-8.533-8.533H25.6c-4.71,0-8.533,3.823-8.533,8.533     S20.89,324.263,25.6,324.263z" fill="#FFFFFF"/>
			<path d="M153.6,366.93c0-4.71-3.823-8.533-8.533-8.533H8.533c-4.71,0-8.533,3.823-8.533,8.533s3.823,8.533,8.533,8.533h136.533     C149.777,375.463,153.6,371.64,153.6,366.93z" fill="#FFFFFF"/>
			<path d="M435.2,375.463H384c-4.71,0-8.533,3.823-8.533,8.533s3.823,8.533,8.533,8.533h51.2c31.13,0,55.202,21.495,59.11,51.2     H353.399L80.333,170.663L209.143,41.853c7.074,22.46,23.33,66.15,49.357,92.177c29.158,29.167,79.761,35.115,99.9,36.326v68.574     h-20.147c-2.961-5.077-8.405-8.533-14.694-8.533c-9.412,0-17.067,7.654-17.067,17.067c0,9.412,7.654,17.067,17.067,17.067     c6.289,0,11.733-3.456,14.694-8.533H358.4v51.2h-20.147c-2.961-5.077-8.405-8.533-14.694-8.533     c-9.412,0-17.067,7.654-17.067,17.067s7.654,17.067,17.067,17.067c6.289,0,11.733-3.456,14.694-8.533H358.4v8.533     c0,2.261,0.896,4.437,2.5,6.033l17.067,17.067c3.337,3.337,8.73,3.337,12.066,0c3.337-3.336,3.337-8.73,0-12.066l-14.566-14.566     V162.13c0-4.71-3.823-8.533-8.533-8.533c-0.649,0-65.092-0.358-96.367-31.633c-32.034-32.034-48.794-97.783-48.956-98.441     c-0.751-2.978-3.038-5.333-5.999-6.153c-2.978-0.802-6.144,0.026-8.311,2.193L62.242,164.622c0,0-0.009,0-0.009,0.009     c-0.008,0-0.008,0.009-0.008,0.009l-11.657,11.665c-10.641,10.633-10.325,29.602,0.666,40.593l266.999,266.999     c1.126,1.126,11.503,11.034,27.768,11.034H486.4c14.353,0,25.6-11.247,25.6-25.6v-17.067     C512,409.196,478.268,375.463,435.2,375.463z M494.933,469.33c0,4.864-3.669,8.533-8.533,8.533H346.001     c-9.31,0-15.693-6.033-15.701-6.033l-266.999-267c-4.403-4.403-4.727-12.407-0.666-16.461l5.632-5.641l275.567,275.567     c1.596,1.604,3.772,2.5,6.033,2.5h145.067V469.33z" fill="#FFFFFF"/>
			<path d="M273.067,230.397v102.4c0,4.71,3.823,8.533,8.533,8.533s8.533-3.823,8.533-8.533v-102.4c0-4.71-3.823-8.533-8.533-8.533     S273.067,225.686,273.067,230.397z" fill="#FFFFFF"/>
			<path d="M332.715,202.971c4.173,0,7.825-3.063,8.431-7.322c0.674-4.659-2.569-8.986-7.236-9.66     c-56.977-8.183-105.634-44.305-130.15-96.614c-1.997-4.267-7.066-6.093-11.349-4.105c-4.267,2.005-6.101,7.083-4.105,11.349     c26.965,57.532,80.495,97.263,143.181,106.266C331.904,202.945,332.305,202.971,332.715,202.971z" fill="#FFFFFF"/>
		</g>
	</g>
</g>
<g>
</g>
<g>
</g>
<g>
</g>
<g>
</g>
<g>
</g>
<g>
</g>
<g>
</g>
<g>
</g>
<g>
</g>
<g>
</g>
<g>
</g>
<g>
</g>
<g>
</g>
<g>
</g>
<g>
</g>
</svg>
